<?xml version="1.0" standalone="no"?>
<!DOCTYPE svg PUBLIC "-//W3C//DTD SVG 20010904//EN"
 "http://www.w3.org/TR/2001/REC-SVG-20010904/DTD/svg10.dtd">
<svg version="1.0" xmlns="http://www.w3.org/2000/svg"
 width="512.000000pt" height="512.000000pt" viewBox="0 0 512.000000 512.000000"
 preserveAspectRatio="xMidYMid meet">

<g transform="translate(0.000000,512.000000) scale(0.100000,-0.100000)"
fill="#000000" stroke="none">
<path d="M2426 4900 c-291 -37 -539 -153 -748 -349 -426 -400 -519 -1047 -225
-1563 l44 -76 -62 -36 c-140 -82 -336 -244 -454 -375 -281 -314 -450 -663
-526 -1086 -22 -123 -31 -392 -16 -480 59 -347 313 -618 660 -703 59 -14 209
-16 1386 -20 1382 -3 1470 -1 1602 39 306 95 536 357 592 673 28 155 4 443
-55 676 -95 373 -280 696 -554 970 -117 117 -269 238 -383 305 l-64 37 44 76
c368 647 121 1458 -545 1787 -205 101 -485 152 -696 125z m344 -445 c96 -25
256 -106 330 -167 337 -280 410 -764 171 -1131 -157 -240 -419 -380 -711 -380
-339 0 -625 182 -775 494 -57 119 -78 235 -73 392 4 115 9 145 37 227 101 300
337 508 651 575 83 18 281 13 370 -10z m-916 -1894 c74 -51 217 -120 311 -151
365 -116 770 -64 1085 141 l65 42 60 -33 c432 -235 744 -647 849 -1120 14 -63
30 -171 36 -239 13 -146 3 -235 -37 -320 -31 -65 -120 -159 -181 -190 -103
-53 -53 -51 -1482 -51 -1463 0 -1388 -3 -1499 63 -67 40 -133 112 -165 181
-39 82 -49 171 -36 317 49 567 353 1048 844 1336 50 29 95 53 99 53 5 0 28
-13 51 -29z"/>
</g>
</svg>
